<?xml version="1.0" standalone="no"?>
<!DOCTYPE svg PUBLIC "-//W3C//DTD SVG 1.1//EN"
  "http://www.w3.org/Graphics/SVG/1.1/DTD/svg11.dtd">
<svg width="46mm" height="46mm" viewBox="-17 -11 46 46" xmlns="http://www.w3.org/2000/svg" version="1.1">
	<title>svgOutput</title>
	<desc>made with tinkercad</desc>
<path d="M -14.92300033569336 18.79800033569336 L -15.305447578430176 16.384000778198242 L -16 12 L -14.92300033569336 5.202000141143799 L -14.503000259399414 4.377724647521973 L -12.272380828857422 4.440892164675075e-17 L -11.79800033569336 -0.9309999942779541 L -6.931000232696533 -5.797999858856201 L -0.7979999780654907 -8.92300033569336 L 0 -9.049426078796387 L 6 -10 L 12.79800033569336 -8.92300033569336 L 16.384000778198242 -7.095794677734375 L 18.930999755859375 -5.797999858856201 L 23.79800033569336 -0.9309999942779541 L 24.272380828857422 4.440892164675075e-17 L 26.92300033569336 5.202000141143799 L 28 12 L 27.30544662475586 16.384000778198242 L 26.92300033569336 18.79800033569336 L 26.885013580322266 18.872554779052734 L 23.800334930419922 24.926420211791992 L 23.79800033569336 24.930999755859375 L 18.930999755859375 29.79800033569336 L 18.85578727722168 29.836322784423828 L 16.384000778198242 31.095792770385742 L 13.102193832397461 32.768001556396484 L 12.801922798156738 32.92100143432617 L 12.79800033569336 32.92300033569336 L 12.797996520996094 32.92300033569336 L 6 34 L 0 33.0494270324707 L -0.7979999780654907 32.92300033569336 L -0.8019225597381592 32.92100143432617 L -1.1021943092346191 32.768001556396484 L -6.85578727722168 29.836322784423828 L -6.931000232696533 29.79800033569336 L -11.79800033569336 24.930999755859375 L -14.503000259399414 19.62227439880371 L -14.92300033569336 18.79800033569336 z" fill="none" stroke="rgb(0,0,255)" stroke-width="0.01mm" />
</svg>